<svg xmlns="http://www.w3.org/2000/svg" xlink="http://www.w3.org/1999/xlink" version="1.1" id="myChart4-svg" class="zc-svg" width="1200" height="1000" display="block" viewBox="0 0 1200 1000"><defs id="myChart4-defs"><linearGradient x1="537" x2="837" y1="40" y2="40" id="myChart4-graph-id0-shape-node_collegeboard-gshape-gradient" gradientUnits="userSpaceOnUse"><stop offset="0.01" stop-color="#51B7CD" stop-opacity="1"></stop><stop offset="0.5" stop-color="#C0E0EB" stop-opacity="1"></stop><stop offset="0.55" stop-color="#C0E0EB" stop-opacity="1"></stop><stop offset="0.99" stop-color="#51B7CD" stop-opacity="1"></stop></linearGradient><linearGradient x1="587" x2="787" y1="193" y2="193" id="myChart4-graph-id0-shape-node_president-gshape-gradient" gradientUnits="userSpaceOnUse"><stop offset="0.01" stop-color="#FDDA58" stop-opacity="1"></stop><stop offset="0.5" stop-color="#FBF4BD" stop-opacity="1"></stop><stop offset="0.55" stop-color="#FBF4BD" stop-opacity="1"></stop><stop offset="0.99" stop-color="#FDDA58" stop-opacity="1"></stop></linearGradient><linearGradient x1="193" x2="313" y1="347" y2="347" id="myChart4-graph-id0-shape-node_execvicepres-gshape-gradient" gradientUnits="userSpaceOnUse"><stop offset="0.01" stop-color="#A15A58" stop-opacity="1"></stop><stop offset="0.5" stop-color="#D6B2B2" stop-opacity="1"></stop><stop offset="0.55" stop-color="#D6B2B2" stop-opacity="1"></stop><stop offset="0.99" stop-color="#A15A58" stop-opacity="1"></stop></linearGradient><linearGradient x1="887" x2="1007" y1="347" y2="347" id="myChart4-graph-id0-shape-node_vicepresle-gshape-gradient" gradientUnits="userSpaceOnUse"><stop offset="0.01" stop-color="#A15A58" stop-opacity="1"></stop><stop offset="0.5" stop-color="#D6B2B2" stop-opacity="1"></stop><stop offset="0.55" stop-color="#D6B2B2" stop-opacity="1"></stop><stop offset="0.99" stop-color="#A15A58" stop-opacity="1"></stop></linearGradient><linearGradient x1="1060" x2="1180" y1="347" y2="347" id="myChart4-graph-id0-shape-node_vicepresstu-gshape-gradient" gradientUnits="userSpaceOnUse"><stop offset="0.01" stop-color="#A15A58" stop-opacity="1"></stop><stop offset="0.5" stop-color="#D6B2B2" stop-opacity="1"></stop><stop offset="0.55" stop-color="#D6B2B2" stop-opacity="1"></stop><stop offset="0.99" stop-color="#A15A58" stop-opacity="1"></stop></linearGradient></defs><g id="myChart4-main" class="zc-rel zc-main"><g id="myChart4-main-c" class="zc-abs"><path id="myChart4-path" d="M 0 0 L 1200 0 L 1200 1000 L 0 1000 L 0 0 L 0 0" fill="none" stroke-linecap="square" stroke-linejoin="miter"></path></g><g id="myChart4-objects-bottom" class="zc-abs"><g id="myChart4-graph-id0-objects-bottom" class="zc-abs"><g id="myChart4-graph-id0-objects-bottom-sh-c" class="zc-abs zc-layer"></g><g id="myChart4-graph-id0-objects-bottom-c" class="zc-abs zc-layer"></g></g></g><g id="myChart4-graphset" class="zc-abs"><g id="myChart4-graph-id0" class="zc-abs"><g id="myChart4-graph-id0-c" class="zc-abs zc-layer zc-persistent"><path id="myChart4-graph-id0-path" d="M 0 0 L 1200 0 L 1200 1000 L 0 1000 L 0 0 L 0 0" fill="#ffffff" fill-opacity="1" stroke-linecap="square" stroke-linejoin="miter"></path></g><g id="myChart4-graph-id0-plotarea"><g id="myChart4-graph-id0-plotarea-c" class="zc-abs zc-layer"><path id="myChart4-graph-id0-plotarea-path" d="M 19 19 L 1180 19 L 1180 980 L 19 980 L 19 19 L 19 19" fill="none" stroke-linecap="square" stroke-linejoin="miter"></path></g></g></g></g><g id="myChart4-objects-maps" class="zc-abs"></g><g id="myChart4-objects-top" class="zc-abs"><g id="myChart4-graph-id0-objects-top" class="zc-abs"><g id="myChart4-graph-id0-objects-top-sh-c" class="zc-abs zc-layer"><path id="myChart4-graph-id0-shape-node_collegeboard-gshape-sh-path" class="zctreeshape" d="M 539 7 L 839 7 L 839 77 L 539 77 L 539 7" fill="#cccccc" fill-opacity="0.75" stroke-linecap="round" stroke-linejoin="round" stroke="#cccccc" stroke-width="2" stroke-opacity="1"></path><path id="myChart4-graph-id0-shape-node_president-gshape-sh-path" class="zctreeshape" d="M 589 165 L 789 165 L 789 225 L 589 225 L 589 165" fill="#cccccc" fill-opacity="0.75" stroke-linecap="round" stroke-linejoin="round" stroke="#cccccc" stroke-width="2" stroke-opacity="1"></path><path id="myChart4-graph-id0-shape-node_execasspres-gshape-sh-path" class="zctreeshape" d="M 965 170 L 1105 170 L 1105 220 L 965 220 L 965 170" fill="#cccccc" fill-opacity="0.75" stroke-linecap="round" stroke-linejoin="round" stroke="#cccccc" stroke-width="2" stroke-opacity="1" transform="translate(30 0)"></path><path id="myChart4-graph-id0-shape-node_execvicepres-gshape-sh-path" class="zctreeshape" d="M 195 314 L 315 314 L 315 384 L 195 384 L 195 314" fill="#cccccc" fill-opacity="0.75" stroke-linecap="round" stroke-linejoin="round" stroke="#cccccc" stroke-width="2" stroke-opacity="1"></path><path id="myChart4-graph-id0-shape-node_chinof-gshape-sh-path" class="zctreeshape" d="M 17 477 L 147 477 L 147 527 L 17 527 L 17 477" fill="#cccccc" fill-opacity="0.75" stroke-linecap="round" stroke-linejoin="round" stroke="#cccccc" stroke-width="2" stroke-opacity="1"></path><path id="myChart4-graph-id0-shape-node_assvicepres-gshape-sh-path" class="zctreeshape" d="M 364 477 L 494 477 L 494 527 L 364 527 L 364 477" fill="#cccccc" fill-opacity="0.75" stroke-linecap="round" stroke-linejoin="round" stroke="#cccccc" stroke-width="2" stroke-opacity="1"></path><path id="myChart4-graph-id0-shape-node_prmdir-gshape-sh-path" class="zctreeshape" d="M 165 623 L 345 623 L 345 688 L 165 688 L 165 623" fill="#cccccc" fill-opacity="0.75" stroke-linecap="round" stroke-linejoin="round" stroke="#cccccc" stroke-width="2" stroke-opacity="1"></path><path id="myChart4-graph-id0-shape-node_prc-gshape-sh-path" class="zctreeshape" d="M 185 784 L 325 784 L 325 834 L 185 834 L 185 784" fill="#cccccc" fill-opacity="0.75" stroke-linecap="round" stroke-linejoin="round" stroke="#cccccc" stroke-width="2" stroke-opacity="1" transform="translate(30 0)"></path><path id="myChart4-graph-id0-shape-node_sw-gshape-sh-path" class="zctreeshape" d="M 185 937 L 325 937 L 325 987 L 185 987 L 185 937" fill="#cccccc" fill-opacity="0.75" stroke-linecap="round" stroke-linejoin="round" stroke="#cccccc" stroke-width="2" stroke-opacity="1" transform="translate(30 0)"></path><path id="myChart4-graph-id0-shape-node_fed-gshape-sh-path" class="zctreeshape" d="M 512 623 L 692 623 L 692 688 L 512 688 L 512 623" fill="#cccccc" fill-opacity="0.75" stroke-linecap="round" stroke-linejoin="round" stroke="#cccccc" stroke-width="2" stroke-opacity="1"></path><path id="myChart4-graph-id0-shape-node_safed-gshape-sh-path" class="zctreeshape" d="M 532 784 L 672 784 L 672 834 L 532 834 L 532 784" fill="#cccccc" fill-opacity="0.75" stroke-linecap="round" stroke-linejoin="round" stroke="#cccccc" stroke-width="2" stroke-opacity="1" transform="translate(30 0)"></path><path id="myChart4-graph-id0-shape-node_dps-gshape-sh-path" class="zctreeshape" d="M 532 937 L 672 937 L 672 987 L 532 987 L 532 937" fill="#cccccc" fill-opacity="0.75" stroke-linecap="round" stroke-linejoin="round" stroke="#cccccc" stroke-width="2" stroke-opacity="1" transform="translate(30 0)"></path><path id="myChart4-graph-id0-shape-node_sdirsp-gshape-sh-path" class="zctreeshape" d="M 859 623 L 1039 623 L 1039 688 L 859 688 L 859 623" fill="#cccccc" fill-opacity="0.75" stroke-linecap="round" stroke-linejoin="round" stroke="#cccccc" stroke-width="2" stroke-opacity="1"></path><path id="myChart4-graph-id0-shape-node_sra-gshape-sh-path" class="zctreeshape" d="M 879 784 L 1019 784 L 1019 834 L 879 834 L 879 784" fill="#cccccc" fill-opacity="0.75" stroke-linecap="round" stroke-linejoin="round" stroke="#cccccc" stroke-width="2" stroke-opacity="1" transform="translate(30 0)"></path><path id="myChart4-graph-id0-shape-node_rs-gshape-sh-path" class="zctreeshape" d="M 879 937 L 1019 937 L 1019 987 L 879 987 L 879 937" fill="#cccccc" fill-opacity="0.75" stroke-linecap="round" stroke-linejoin="round" stroke="#cccccc" stroke-width="2" stroke-opacity="1" transform="translate(30 0)"></path><path id="myChart4-graph-id0-shape-node_vicepresle-gshape-sh-path" class="zctreeshape" d="M 889 314 L 1009 314 L 1009 384 L 889 384 L 889 314" fill="#cccccc" fill-opacity="0.75" stroke-linecap="round" stroke-linejoin="round" stroke="#cccccc" stroke-width="2" stroke-opacity="1"></path><path id="myChart4-graph-id0-shape-node_assvicepresl-gshape-sh-path" class="zctreeshape" d="M 884 477 L 1014 477 L 1014 527 L 884 527 L 884 477" fill="#cccccc" fill-opacity="0.75" stroke-linecap="round" stroke-linejoin="round" stroke="#cccccc" stroke-width="2" stroke-opacity="1"></path><path id="myChart4-graph-id0-shape-node_vicepresstu-gshape-sh-path" class="zctreeshape" d="M 1062 314 L 1182 314 L 1182 384 L 1062 384 L 1062 314" fill="#cccccc" fill-opacity="0.75" stroke-linecap="round" stroke-linejoin="round" stroke="#cccccc" stroke-width="2" stroke-opacity="1"></path></g><g id="myChart4-graph-id0-objects-top-c" class="zc-abs zc-layer"><path id="myChart4-graph-id0-shape-link_2_0-path" class="zctreeshape" d="M 687 75 L 687 117 L 687 117 L 687 163" fill="none" stroke-linecap="butt" stroke-linejoin="round" stroke="#000000" stroke-width="2" stroke-opacity="1"></path><path id="myChart4-graph-id0-shape-link_3_0-path" class="zctreeshape" d="M 993 193 L 787 193" fill="none" stroke-linecap="butt" stroke-linejoin="round" stroke="#000000" stroke-width="2" stroke-opacity="1"></path><path id="myChart4-graph-id0-shape-link_4_2-path" class="zctreeshape" d="M 687 223 L 687 270 L 253 270 L 253 312" fill="none" stroke-linecap="butt" stroke-linejoin="round" stroke="#000000" stroke-width="2" stroke-opacity="1"></path><path id="myChart4-graph-id0-shape-link_5_4-path" class="zctreeshape" d="M 253 382 L 253 423 L 80 423 L 80 475" fill="none" stroke-linecap="butt" stroke-linejoin="round" stroke="#000000" stroke-width="2" stroke-opacity="1"></path><path id="myChart4-graph-id0-shape-link_6_4-path" class="zctreeshape" d="M 253 382 L 253 423 L 427 423 L 427 475" fill="none" stroke-linecap="butt" stroke-linejoin="round" stroke="#000000" stroke-width="2" stroke-opacity="1"></path><path id="myChart4-graph-id0-shape-link_7_2-path" class="zctreeshape" d="M 687 223 L 687 270 L 600 270 L 600 347" fill="none" stroke-linecap="butt" stroke-linejoin="round" stroke="#000000" stroke-width="2" stroke-opacity="1"></path><path id="myChart4-graph-id0-shape-link_8_7-path" class="zctreeshape" d="M 600 347 L 600 423 L 600 423 L 600 500" fill="none" stroke-linecap="butt" stroke-linejoin="round" stroke="#000000" stroke-width="2" stroke-opacity="1"></path><path id="myChart4-graph-id0-shape-link_9_8-path" class="zctreeshape" d="M 600 500 L 600 577 L 253 577 L 253 621" fill="none" stroke-linecap="butt" stroke-linejoin="round" stroke="#000000" stroke-width="2" stroke-opacity="1"></path><path id="myChart4-graph-id0-shape-link_10_9-path" class="zctreeshape" d="M 213 807 L 193 807 L 193 730 L 193 730 L 193 686" fill="none" stroke-linecap="butt" stroke-linejoin="round" stroke="#000000" stroke-width="2" stroke-opacity="1"></path><path id="myChart4-graph-id0-shape-link_11_9-path" class="zctreeshape" d="M 213 960 L 193 960 L 193 730 L 193 730 L 193 686" fill="none" stroke-linecap="butt" stroke-linejoin="round" stroke="#000000" stroke-width="2" stroke-opacity="1"></path><path id="myChart4-graph-id0-shape-link_12_8-path" class="zctreeshape" d="M 600 500 L 600 577 L 600 577 L 600 621" fill="none" stroke-linecap="butt" stroke-linejoin="round" stroke="#000000" stroke-width="2" stroke-opacity="1"></path><path id="myChart4-graph-id0-shape-link_13_12-path" class="zctreeshape" d="M 560 807 L 540 807 L 540 730 L 540 730 L 540 686" fill="none" stroke-linecap="butt" stroke-linejoin="round" stroke="#000000" stroke-width="2" stroke-opacity="1"></path><path id="myChart4-graph-id0-shape-link_14_12-path" class="zctreeshape" d="M 560 960 L 540 960 L 540 730 L 540 730 L 540 686" fill="none" stroke-linecap="butt" stroke-linejoin="round" stroke="#000000" stroke-width="2" stroke-opacity="1"></path><path id="myChart4-graph-id0-shape-link_15_8-path" class="zctreeshape" d="M 600 500 L 600 577 L 947 577 L 947 621" fill="none" stroke-linecap="butt" stroke-linejoin="round" stroke="#000000" stroke-width="2" stroke-opacity="1"></path><path id="myChart4-graph-id0-shape-link_16_15-path" class="zctreeshape" d="M 907 807 L 887 807 L 887 730 L 887 730 L 887 686" fill="none" stroke-linecap="butt" stroke-linejoin="round" stroke="#000000" stroke-width="2" stroke-opacity="1"></path><path id="myChart4-graph-id0-shape-link_17_15-path" class="zctreeshape" d="M 907 960 L 887 960 L 887 730 L 887 730 L 887 686" fill="none" stroke-linecap="butt" stroke-linejoin="round" stroke="#000000" stroke-width="2" stroke-opacity="1"></path><path id="myChart4-graph-id0-shape-link_18_2-path" class="zctreeshape" d="M 687 223 L 687 270 L 947 270 L 947 312" fill="none" stroke-linecap="butt" stroke-linejoin="round" stroke="#000000" stroke-width="2" stroke-opacity="1"></path><path id="myChart4-graph-id0-shape-link_19_18-path" class="zctreeshape" d="M 947 382 L 947 423 L 947 423 L 947 475" fill="none" stroke-linecap="butt" stroke-linejoin="round" stroke="#000000" stroke-width="2" stroke-opacity="1"></path><path id="myChart4-graph-id0-shape-link_20_2-path" class="zctreeshape" d="M 687 223 L 687 270 L 1120 270 L 1120 312" fill="none" stroke-linecap="butt" stroke-linejoin="round" stroke="#000000" stroke-width="2" stroke-opacity="1"></path><path id="myChart4-graph-id0-shape-node_collegeboard-gshape-path" class="zctreeshape" d="M 537 5 L 837 5 L 837 75 L 537 75 L 537 5" fill="url(#myChart4-graph-id0-shape-node_collegeboard-gshape-gradient)" fill-opacity="1" stroke-linecap="round" stroke-linejoin="round" stroke="#000000" stroke-width="2" stroke-opacity="1"></path><path id="myChart4-graph-id0-shape-label-node_collegeboard-path" d="M 646 27 L 726 27 L 726 51 L 646 51 L 646 27 L 646 27" fill="none" stroke-linecap="square" stroke-linejoin="miter"></path><path id="myChart4-graph-id0-shape-node_president-gshape-path" class="zctreeshape" d="M 587 163 L 787 163 L 787 223 L 587 223 L 587 163" fill="url(#myChart4-graph-id0-shape-node_president-gshape-gradient)" fill-opacity="1" stroke-linecap="round" stroke-linejoin="round" stroke="#000000" stroke-width="2" stroke-opacity="1"></path><path id="myChart4-graph-id0-shape-label-node_president-path" d="M 646 180 L 726 180 L 726 204 L 646 204 L 646 180 L 646 180" fill="none" stroke-linecap="square" stroke-linejoin="miter"></path><path id="myChart4-graph-id0-shape-node_execasspres-gshape-path" class="zctreeshape" d="M 963 168 L 1103 168 L 1103 218 L 963 218 L 963 168" fill="#ffffff" fill-opacity="1" stroke-linecap="round" stroke-linejoin="round" stroke="#000000" stroke-width="2" stroke-opacity="1" transform="translate(30 0)"></path><path id="myChart4-graph-id0-shape-label-node_execasspres-path" d="M 1022 177 L 1102 177 L 1102 207 L 1022 207 L 1022 177 L 1022 177" fill="none" stroke-linecap="square" stroke-linejoin="miter"></path><path id="myChart4-graph-id0-shape-node_execvicepres-gshape-path" class="zctreeshape" d="M 193 312 L 313 312 L 313 382 L 193 382 L 193 312" fill="url(#myChart4-graph-id0-shape-node_execvicepres-gshape-gradient)" fill-opacity="1" stroke-linecap="round" stroke-linejoin="round" stroke="#000000" stroke-width="2" stroke-opacity="1"></path><path id="myChart4-graph-id0-shape-label-node_execvicepres-path" d="M 212 325 L 292 325 L 292 368 L 212 368 L 212 325 L 212 325" fill="none" stroke-linecap="square" stroke-linejoin="miter"></path><path id="myChart4-graph-id0-shape-node_chinof-gshape-path" class="zctreeshape" d="M 15 475 L 145 475 L 145 525 L 15 525 L 15 475" fill="#C3D79A" fill-opacity="1" stroke-linecap="round" stroke-linejoin="round" stroke="#000000" stroke-width="2" stroke-opacity="1"></path><path id="myChart4-graph-id0-shape-label-node_chinof-path" d="M 39 491 L 119 491 L 119 508 L 39 508 L 39 491 L 39 491" fill="none" stroke-linecap="square" stroke-linejoin="miter"></path><path id="myChart4-graph-id0-shape-node_assvicepres-gshape-path" class="zctreeshape" d="M 362 475 L 492 475 L 492 525 L 362 525 L 362 475" fill="#C3D79A" fill-opacity="1" stroke-linecap="round" stroke-linejoin="round" stroke="#000000" stroke-width="2" stroke-opacity="1"></path><path id="myChart4-graph-id0-shape-label-node_assvicepres-path" d="M 386 491 L 466 491 L 466 508 L 386 508 L 386 491 L 386 491" fill="none" stroke-linecap="square" stroke-linejoin="miter"></path><path id="myChart4-graph-id0-shape-node_prmdir-gshape-path" class="zctreeshape" d="M 163 621 L 343 621 L 343 686 L 163 686 L 163 621" fill="#B7DDE8" fill-opacity="1" stroke-linecap="round" stroke-linejoin="round" stroke="#000000" stroke-width="2" stroke-opacity="1"></path><path id="myChart4-graph-id0-shape-label-node_prmdir-path" d="M 212 637 L 292 637 L 292 667 L 212 667 L 212 637 L 212 637" fill="none" stroke-linecap="square" stroke-linejoin="miter"></path><path id="myChart4-graph-id0-shape-node_prc-gshape-path" class="zctreeshape" d="M 183 782 L 323 782 L 323 832 L 183 832 L 183 782" fill="#ffffff" fill-opacity="1" stroke-linecap="round" stroke-linejoin="round" stroke="#000000" stroke-width="2" stroke-opacity="1" transform="translate(30 0)"></path><path id="myChart4-graph-id0-shape-label-node_prc-path" d="M 242 791 L 322 791 L 322 821 L 242 821 L 242 791 L 242 791" fill="none" stroke-linecap="square" stroke-linejoin="miter"></path><path id="myChart4-graph-id0-shape-node_sw-gshape-path" class="zctreeshape" d="M 183 935 L 323 935 L 323 985 L 183 985 L 183 935" fill="#ffffff" fill-opacity="1" stroke-linecap="round" stroke-linejoin="round" stroke="#000000" stroke-width="2" stroke-opacity="1" transform="translate(30 0)"></path><path id="myChart4-graph-id0-shape-label-node_sw-path" d="M 242 951 L 322 951 L 322 968 L 242 968 L 242 951 L 242 951" fill="none" stroke-linecap="square" stroke-linejoin="miter"></path><path id="myChart4-graph-id0-shape-node_fed-gshape-path" class="zctreeshape" d="M 510 621 L 690 621 L 690 686 L 510 686 L 510 621" fill="#B7DDE8" fill-opacity="1" stroke-linecap="round" stroke-linejoin="round" stroke="#000000" stroke-width="2" stroke-opacity="1"></path><path id="myChart4-graph-id0-shape-label-node_fed-path" d="M 559 637 L 639 637 L 639 667 L 559 667 L 559 637 L 559 637" fill="none" stroke-linecap="square" stroke-linejoin="miter"></path><path id="myChart4-graph-id0-shape-node_safed-gshape-path" class="zctreeshape" d="M 530 782 L 670 782 L 670 832 L 530 832 L 530 782" fill="#ffffff" fill-opacity="1" stroke-linecap="round" stroke-linejoin="round" stroke="#000000" stroke-width="2" stroke-opacity="1" transform="translate(30 0)"></path><path id="myChart4-graph-id0-shape-label-node_safed-path" d="M 589 798 L 669 798 L 669 815 L 589 815 L 589 798 L 589 798" fill="none" stroke-linecap="square" stroke-linejoin="miter"></path><path id="myChart4-graph-id0-shape-node_dps-gshape-path" class="zctreeshape" d="M 530 935 L 670 935 L 670 985 L 530 985 L 530 935" fill="#ffffff" fill-opacity="1" stroke-linecap="round" stroke-linejoin="round" stroke="#000000" stroke-width="2" stroke-opacity="1" transform="translate(30 0)"></path><path id="myChart4-graph-id0-shape-label-node_dps-path" d="M 589 944 L 669 944 L 669 974 L 589 974 L 589 944 L 589 944" fill="none" stroke-linecap="square" stroke-linejoin="miter"></path><path id="myChart4-graph-id0-shape-node_sdirsp-gshape-path" class="zctreeshape" d="M 857 621 L 1037 621 L 1037 686 L 857 686 L 857 621" fill="#B7DDE8" fill-opacity="1" stroke-linecap="round" stroke-linejoin="round" stroke="#000000" stroke-width="2" stroke-opacity="1"></path><path id="myChart4-graph-id0-shape-label-node_sdirsp-path" d="M 906 631 L 986 631 L 986 674 L 906 674 L 906 631 L 906 631" fill="none" stroke-linecap="square" stroke-linejoin="miter"></path><path id="myChart4-graph-id0-shape-node_sra-gshape-path" class="zctreeshape" d="M 877 782 L 1017 782 L 1017 832 L 877 832 L 877 782" fill="#ffffff" fill-opacity="1" stroke-linecap="round" stroke-linejoin="round" stroke="#000000" stroke-width="2" stroke-opacity="1" transform="translate(30 0)"></path><path id="myChart4-graph-id0-shape-label-node_sra-path" d="M 936 791 L 1016 791 L 1016 821 L 936 821 L 936 791 L 936 791" fill="none" stroke-linecap="square" stroke-linejoin="miter"></path><path id="myChart4-graph-id0-shape-node_rs-gshape-path" class="zctreeshape" d="M 877 935 L 1017 935 L 1017 985 L 877 985 L 877 935" fill="#ffffff" fill-opacity="1" stroke-linecap="round" stroke-linejoin="round" stroke="#000000" stroke-width="2" stroke-opacity="1" transform="translate(30 0)"></path><path id="myChart4-graph-id0-shape-label-node_rs-path" d="M 936 951 L 1016 951 L 1016 968 L 936 968 L 936 951 L 936 951" fill="none" stroke-linecap="square" stroke-linejoin="miter"></path><path id="myChart4-graph-id0-shape-node_vicepresle-gshape-path" class="zctreeshape" d="M 887 312 L 1007 312 L 1007 382 L 887 382 L 887 312" fill="url(#myChart4-graph-id0-shape-node_vicepresle-gshape-gradient)" fill-opacity="1" stroke-linecap="round" stroke-linejoin="round" stroke="#000000" stroke-width="2" stroke-opacity="1"></path><path id="myChart4-graph-id0-shape-label-node_vicepresle-path" d="M 906 331 L 986 331 L 986 361 L 906 361 L 906 331 L 906 331" fill="none" stroke-linecap="square" stroke-linejoin="miter"></path><path id="myChart4-graph-id0-shape-node_assvicepresl-gshape-path" class="zctreeshape" d="M 882 475 L 1012 475 L 1012 525 L 882 525 L 882 475" fill="#C3D79A" fill-opacity="1" stroke-linecap="round" stroke-linejoin="round" stroke="#000000" stroke-width="2" stroke-opacity="1"></path><path id="myChart4-graph-id0-shape-label-node_assvicepresl-path" d="M 906 491 L 986 491 L 986 508 L 906 508 L 906 491 L 906 491" fill="none" stroke-linecap="square" stroke-linejoin="miter"></path><path id="myChart4-graph-id0-shape-node_vicepresstu-gshape-path" class="zctreeshape" d="M 1060 312 L 1180 312 L 1180 382 L 1060 382 L 1060 312" fill="url(#myChart4-graph-id0-shape-node_vicepresstu-gshape-gradient)" fill-opacity="1" stroke-linecap="round" stroke-linejoin="round" stroke="#000000" stroke-width="2" stroke-opacity="1"></path><path id="myChart4-graph-id0-shape-label-node_vicepresstu-path" d="M 1079 338 L 1159 338 L 1159 355 L 1079 355 L 1079 338 L 1079 338" fill="none" stroke-linecap="square" stroke-linejoin="miter"></path></g><g id="myChart4-graph-id0-objects-print-c" class="zc-abs zc-layer"></g></g></g><g id="myChart4-hover" class="zc-abs"><g id="myChart4-graph-id0-hover" class="zc-abs" clip-path="url(#myChart4-graph-id0-clip-hover)"><g id="myChart4-graph-id0-hover-c" class="zc-abs zc-layer"></g></g><g id="myChart4-graph-id0-objects-click" class="zc-abs"><g id="myChart4-graph-id0-objects-click-c" class="zc-abs zc-layer"></g></g><g id="myChart4-graph-id0-objects-hover" class="zc-abs"><g id="myChart4-graph-id0-objects-hover-c" class="zc-abs zc-layer"></g></g></g><g id="myChart4-objects-front" class="zc-abs"></g><g id="myChart4-text" class="zc-abs zc-text"><text x="648" y="29.25" id="myChart4-graph-id0-shape-label-node_collegeboard" class="myChart4-graph-id0-shape-label zc-shape-label" opacity="1"><tspan x="623.21" y="44.25" color="#000000" fill="#000000" dy="0" style="font-weight: bold; font-style: normal; text-decoration: none; font-size: 15px; font-family: &quot;Lucida Sans Unicode&quot;, &quot;Lucida Grande&quot;, &quot;Lucida Sans&quot;, Helvetica, Arial, sans-serif; dominant-baseline: auto;">ITEM LIST BOARD</tspan></text><text x="648" y="182.25" id="myChart4-graph-id0-shape-label-node_president" class="myChart4-graph-id0-shape-label zc-shape-label" opacity="1"><tspan x="634.09" y="197.25" color="#000000" fill="#000000" dy="0" style="font-weight: bold; font-style: normal; text-decoration: none; font-size: 15px; font-family: &quot;Lucida Sans Unicode&quot;, &quot;Lucida Grande&quot;, &quot;Lucida Sans&quot;, Helvetica, Arial, sans-serif; dominant-baseline: auto;">ACCESSIBILITY</tspan></text><text x="1024" y="179" id="myChart4-graph-id0-shape-label-node_execasspres" class="myChart4-graph-id0-shape-label zc-shape-label" opacity="1"><tspan x="1028.52" y="189" color="#000000" fill="#000000" dy="0" style="font-weight: normal; font-style: normal; text-decoration: none; font-size: 10px; font-family: &quot;Lucida Sans Unicode&quot;, &quot;Lucida Grande&quot;, &quot;Lucida Sans&quot;, Helvetica, Arial, sans-serif; dominant-baseline: auto;">Power User to</tspan><tspan x="1027.53" y="189" color="#000000" fill="#000000" dy="12.5" style="font-weight: normal; font-style: normal; text-decoration: none; font-size: 10px; font-family: &quot;Lucida Sans Unicode&quot;, &quot;Lucida Grande&quot;, &quot;Lucida Sans&quot;, Helvetica, Arial, sans-serif; dominant-baseline: auto;">Common User</tspan></text><text x="214" y="326.5" id="myChart4-graph-id0-shape-label-node_execvicepres" class="myChart4-graph-id0-shape-label zc-shape-label" opacity="1"><tspan x="234.32" y="336.5" color="#000000" fill="#000000" dy="0" style="font-weight: normal; font-style: normal; text-decoration: none; font-size: 10px; font-family: &quot;Lucida Sans Unicode&quot;, &quot;Lucida Grande&quot;, &quot;Lucida Sans&quot;, Helvetica, Arial, sans-serif; dominant-baseline: auto;">Subject</tspan><tspan x="223.13" y="336.5" color="#000000" fill="#000000" dy="12.5" style="font-weight: normal; font-style: normal; text-decoration: none; font-size: 10px; font-family: &quot;Lucida Sans Unicode&quot;, &quot;Lucida Grande&quot;, &quot;Lucida Sans&quot;, Helvetica, Arial, sans-serif; dominant-baseline: auto;">Broad Item/</tspan><tspan x="212.57" y="336.5" color="#000000" fill="#000000" dy="25" style="font-weight: normal; font-style: normal; text-decoration: none; font-size: 10px; font-family: &quot;Lucida Sans Unicode&quot;, &quot;Lucida Grande&quot;, &quot;Lucida Sans&quot;, Helvetica, Arial, sans-serif; dominant-baseline: auto;">Specialized Item</tspan></text><text x="41" y="492.5" id="myChart4-graph-id0-shape-label-node_chinof" class="myChart4-graph-id0-shape-label zc-shape-label" opacity="1"><tspan x="34.25" y="502.5" color="#000000" fill="#000000" dy="0" style="font-weight: normal; font-style: normal; text-decoration: none; font-size: 10px; font-family: &quot;Lucida Sans Unicode&quot;, &quot;Lucida Grande&quot;, &quot;Lucida Sans&quot;, Helvetica, Arial, sans-serif; dominant-baseline: auto;">Internal Resources</tspan></text><text x="388" y="492.5" id="myChart4-graph-id0-shape-label-node_assvicepres" class="myChart4-graph-id0-shape-label zc-shape-label" opacity="1"><tspan x="380.01" y="502.5" color="#000000" fill="#000000" dy="0" style="font-weight: normal; font-style: normal; text-decoration: none; font-size: 10px; font-family: &quot;Lucida Sans Unicode&quot;, &quot;Lucida Grande&quot;, &quot;Lucida Sans&quot;, Helvetica, Arial, sans-serif; dominant-baseline: auto;">External Resources</tspan></text><text x="214" y="639" id="myChart4-graph-id0-shape-label-node_prmdir" class="myChart4-graph-id0-shape-label zc-shape-label" opacity="1"><tspan x="169.31" y="649" color="#000000" fill="#000000" dy="0" style="font-weight: normal; font-style: normal; text-decoration: none; font-size: 10px; font-family: &quot;Lucida Sans Unicode&quot;, &quot;Lucida Grande&quot;, &quot;Lucida Sans&quot;, Helvetica, Arial, sans-serif; dominant-baseline: auto;">Manual Document &amp; Lesson Script</tspan><tspan x="211.03" y="649" color="#000000" fill="#000000" dy="12.5" style="font-weight: normal; font-style: normal; text-decoration: none; font-size: 10px; font-family: &quot;Lucida Sans Unicode&quot;, &quot;Lucida Grande&quot;, &quot;Lucida Sans&quot;, Helvetica, Arial, sans-serif; dominant-baseline: auto;">Internal/External</tspan></text><text x="244" y="793" id="myChart4-graph-id0-shape-label-node_prc" class="myChart4-graph-id0-shape-label zc-shape-label" opacity="1"><tspan x="243.76" y="803" color="#000000" fill="#000000" dy="0" style="font-weight: normal; font-style: normal; text-decoration: none; font-size: 10px; font-family: &quot;Lucida Sans Unicode&quot;, &quot;Lucida Grande&quot;, &quot;Lucida Sans&quot;, Helvetica, Arial, sans-serif; dominant-baseline: auto;">Public Relations</tspan><tspan x="263.44" y="803" color="#000000" fill="#000000" dy="12.5" style="font-weight: normal; font-style: normal; text-decoration: none; font-size: 10px; font-family: &quot;Lucida Sans Unicode&quot;, &quot;Lucida Grande&quot;, &quot;Lucida Sans&quot;, Helvetica, Arial, sans-serif; dominant-baseline: auto;">Internal</tspan></text><text x="244" y="952.5" id="myChart4-graph-id0-shape-label-node_sw" class="myChart4-graph-id0-shape-label zc-shape-label" opacity="1"><tspan x="219.83" y="962.5" color="#000000" fill="#000000" dy="0" style="font-weight: normal; font-style: normal; text-decoration: none; font-size: 10px; font-family: &quot;Lucida Sans Unicode&quot;, &quot;Lucida Grande&quot;, &quot;Lucida Sans&quot;, Helvetica, Arial, sans-serif; dominant-baseline: auto;">Shared Linkable Relations</tspan></text><text x="561" y="639" id="myChart4-graph-id0-shape-label-node_fed" class="myChart4-graph-id0-shape-label zc-shape-label" opacity="1"><tspan x="525.87" y="649" color="#000000" fill="#000000" dy="0" style="font-weight: normal; font-style: normal; text-decoration: none; font-size: 10px; font-family: &quot;Lucida Sans Unicode&quot;, &quot;Lucida Grande&quot;, &quot;Lucida Sans&quot;, Helvetica, Arial, sans-serif; dominant-baseline: auto;">Source Code &amp; Executable File</tspan><tspan x="545.81" y="649" color="#000000" fill="#000000" dy="12.5" style="font-weight: normal; font-style: normal; text-decoration: none; font-size: 10px; font-family: &quot;Lucida Sans Unicode&quot;, &quot;Lucida Grande&quot;, &quot;Lucida Sans&quot;, Helvetica, Arial, sans-serif; dominant-baseline: auto;">Referenced Resources</tspan></text><text x="591" y="799.5" id="myChart4-graph-id0-shape-label-node_safed" class="myChart4-graph-id0-shape-label zc-shape-label" opacity="1"><tspan x="598.69" y="809.5" color="#000000" fill="#000000" dy="0" style="font-weight: normal; font-style: normal; text-decoration: none; font-size: 10px; font-family: &quot;Lucida Sans Unicode&quot;, &quot;Lucida Grande&quot;, &quot;Lucida Sans&quot;, Helvetica, Arial, sans-serif; dominant-baseline: auto;">Source Code</tspan></text><text x="591" y="946" id="myChart4-graph-id0-shape-label-node_dps" class="myChart4-graph-id0-shape-label zc-shape-label" opacity="1"><tspan x="592.83" y="956" color="#000000" fill="#000000" dy="0" style="font-weight: normal; font-style: normal; text-decoration: none; font-size: 10px; font-family: &quot;Lucida Sans Unicode&quot;, &quot;Lucida Grande&quot;, &quot;Lucida Sans&quot;, Helvetica, Arial, sans-serif; dominant-baseline: auto;">Executable File</tspan><tspan x="612.11" y="956" color="#000000" fill="#000000" dy="12.5" style="font-weight: normal; font-style: normal; text-decoration: none; font-size: 10px; font-family: &quot;Lucida Sans Unicode&quot;, &quot;Lucida Grande&quot;, &quot;Lucida Sans&quot;, Helvetica, Arial, sans-serif; dominant-baseline: auto;">Extract</tspan></text><text x="908" y="632.5" id="myChart4-graph-id0-shape-label-node_sdirsp" class="myChart4-graph-id0-shape-label zc-shape-label" opacity="1"><tspan x="935.25" y="642.5" color="#000000" fill="#000000" dy="0" style="font-weight: normal; font-style: normal; text-decoration: none; font-size: 10px; font-family: &quot;Lucida Sans Unicode&quot;, &quot;Lucida Grande&quot;, &quot;Lucida Sans&quot;, Helvetica, Arial, sans-serif; dominant-baseline: auto;">Tool</tspan><tspan x="904.91" y="642.5" color="#000000" fill="#000000" dy="12.5" style="font-weight: normal; font-style: normal; text-decoration: none; font-size: 10px; font-family: &quot;Lucida Sans Unicode&quot;, &quot;Lucida Grande&quot;, &quot;Lucida Sans&quot;, Helvetica, Arial, sans-serif; dominant-baseline: auto;">Environment and</tspan><tspan x="928.52" y="642.5" color="#000000" fill="#000000" dy="25" style="font-weight: normal; font-style: normal; text-decoration: none; font-size: 10px; font-family: &quot;Lucida Sans Unicode&quot;, &quot;Lucida Grande&quot;, &quot;Lucida Sans&quot;, Helvetica, Arial, sans-serif; dominant-baseline: auto;">Manual</tspan></text><text x="938" y="793" id="myChart4-graph-id0-shape-label-node_sra" class="myChart4-graph-id0-shape-label zc-shape-label" opacity="1"><tspan x="930.33" y="803" color="#000000" fill="#000000" dy="0" style="font-weight: normal; font-style: normal; text-decoration: none; font-size: 10px; font-family: &quot;Lucida Sans Unicode&quot;, &quot;Lucida Grande&quot;, &quot;Lucida Sans&quot;, Helvetica, Arial, sans-serif; dominant-baseline: auto;">Environment Setup </tspan><tspan x="945.73" y="803" color="#000000" fill="#000000" dy="12.5" style="font-weight: normal; font-style: normal; text-decoration: none; font-size: 10px; font-family: &quot;Lucida Sans Unicode&quot;, &quot;Lucida Grande&quot;, &quot;Lucida Sans&quot;, Helvetica, Arial, sans-serif; dominant-baseline: auto;"> User manual</tspan></text><text x="938" y="952.5" id="myChart4-graph-id0-shape-label-node_rs" class="myChart4-graph-id0-shape-label zc-shape-label" opacity="1"><tspan x="936.11" y="962.5" color="#000000" fill="#000000" dy="0" style="font-weight: normal; font-style: normal; text-decoration: none; font-size: 10px; font-family: &quot;Lucida Sans Unicode&quot;, &quot;Lucida Grande&quot;, &quot;Lucida Sans&quot;, Helvetica, Arial, sans-serif; dominant-baseline: auto;">Tools Supported</tspan></text><text x="908" y="333" id="myChart4-graph-id0-shape-label-node_vicepresle" class="myChart4-graph-id0-shape-label zc-shape-label" opacity="1"><tspan x="904.87" y="343" color="#000000" fill="#000000" dy="0" style="font-weight: normal; font-style: normal; text-decoration: none; font-size: 10px; font-family: &quot;Lucida Sans Unicode&quot;, &quot;Lucida Grande&quot;, &quot;Lucida Sans&quot;, Helvetica, Arial, sans-serif; dominant-baseline: auto;">Technical Project</tspan><tspan x="913.61" y="343" color="#000000" fill="#000000" dy="12.5" style="font-weight: normal; font-style: normal; text-decoration: none; font-size: 10px; font-family: &quot;Lucida Sans Unicode&quot;, &quot;Lucida Grande&quot;, &quot;Lucida Sans&quot;, Helvetica, Arial, sans-serif; dominant-baseline: auto;">for Reference</tspan></text><text x="908" y="492.5" id="myChart4-graph-id0-shape-label-node_assvicepresl" class="myChart4-graph-id0-shape-label zc-shape-label" opacity="1"><tspan x="900.79" y="502.5" color="#000000" fill="#000000" dy="0" style="font-weight: normal; font-style: normal; text-decoration: none; font-size: 10px; font-family: &quot;Lucida Sans Unicode&quot;, &quot;Lucida Grande&quot;, &quot;Lucida Sans&quot;, Helvetica, Arial, sans-serif; dominant-baseline: auto;">Referenced Project</tspan></text><text x="1081" y="339.5" id="myChart4-graph-id0-shape-label-node_vicepresstu" class="myChart4-graph-id0-shape-label zc-shape-label" opacity="1"><tspan x="1068.95" y="349.5" color="#000000" fill="#000000" dy="0" style="font-weight: normal; font-style: normal; text-decoration: none; font-size: 10px; font-family: &quot;Lucida Sans Unicode&quot;, &quot;Lucida Grande&quot;, &quot;Lucida Sans&quot;, Helvetica, Arial, sans-serif; dominant-baseline: auto;">Reference Resources</tspan></text></g><g id="myChart4-legend" class="zc-abs"></g><g id="myChart4-tools" class="zc-abs"><g id="myChart4-static-c" class="zc-abs zc-layer"></g><g id="myChart4-guide-c" class="zc-abs zc-layer zc-guide-c"></g><g id="myChart4-trigger-c" class="zc-abs zc-layer"></g><g id="myChart4-print-c" class="zc-abs zc-layer"></g><g id="myChart4-textprint-c" class="zc-abs zc-layer"></g></g><g id="myChart4-text-top" class="zc-abs"></g></g><clipPath id="myChart4-graph-id0-clip"><polygon id="myChart4-graph-id0-clip-shape" points="20,20 1180,20 1180,980 20,980 20,20"></polygon></clipPath><clipPath id="myChart4-graph-id0-clip-hover"><polygon id="myChart4-graph-id0-clip-hover-shape" points="20,20 1180,20 1180,980 20,980 20,20"></polygon></clipPath></svg>